<svg xmlns="http://www.w3.org/2000/svg" width="256" height="256" viewBox="0 0 100 100"><rect width="100" height="100" rx="50" fill="#525252"></rect><path fill="#fff" d="M47.77 84.91L47.77 84.91Q39.03 84.91 31.86 80.64Q24.68 76.36 20.45 68.57Q16.23 60.78 16.23 50.14L16.23 50.14Q16.23 42.45 18.79 35.99Q21.36 29.53 25.82 24.87Q30.29 20.22 36.08 17.65Q41.88 15.09 48.34 15.09L48.34 15.09Q52.52 15.09 55.84 16.13Q59.17 17.18 61.26 18.13L61.26 18.13Q63.73 19.17 64.72 19.55Q65.72 19.93 66.96 19.93L66.96 19.93Q68.29 19.93 68.81 18.74Q69.33 17.56 69.33 16.42L69.33 16.42L71.71 16.42L71.52 27.34L71.71 38.46L69.33 38.46Q69.14 32.00 65.96 27.39Q62.78 22.78 57.98 20.36Q53.18 17.94 48.05 17.94L48.05 17.94Q36.94 17.94 31.43 26.30Q25.92 34.66 25.92 50.14L25.92 50.14Q25.92 66.48 31.81 74.27Q37.70 82.06 48.34 82.06L48.34 82.06Q53.66 82.06 57.74 80.35Q61.83 78.64 64.20 75.84Q66.58 73.04 66.58 70.00L66.58 70.00L66.58 67.34Q66.58 63.16 64.63 61.35Q62.68 59.55 57.46 59.07L57.46 59.07L53.37 58.69L53.37 56.41L69.14 56.79L83.77 56.41L83.77 58.69L79.50 59.07Q76.93 59.26 75.32 61.07Q73.70 62.87 73.70 67.34L73.70 67.34L73.70 69.05Q73.70 71.23 74.41 73.13Q75.13 75.03 75.79 76.36L75.79 76.36L77.12 78.74L74.94 80.16Q73.70 78.17 72.52 77.45Q71.33 76.74 70.47 76.74L70.47 76.74Q68.95 76.74 67.72 77.50Q66.48 78.26 65.06 79.31L65.06 79.31Q63.44 80.45 61.21 81.78Q58.98 83.11 55.75 84.01Q52.52 84.91 47.77 84.91Z"></path></svg>